<?xml version="1.0" encoding="UTF-8" standalone="no"?>
<!DOCTYPE svg PUBLIC "-//W3C//DTD SVG 1.1//EN"
 "http://www.w3.org/Graphics/SVG/1.1/DTD/svg11.dtd">
<!-- Generated by graphviz version 10.0.1 (20240210.2158)
 -->
<!-- Pages: 1 -->
<svg width="134pt" height="212pt"
 viewBox="0.00 0.00 134.00 211.75" xmlns="http://www.w3.org/2000/svg" xmlns:xlink="http://www.w3.org/1999/xlink">
<g id="graph0" class="graph" transform="scale(1 1) rotate(0) translate(4 207.75)">
<polygon fill="white" stroke="none" points="-4,4 -4,-207.75 130,-207.75 130,4 -4,4"/>
<text text-anchor="middle" x="63" y="-6.45" font-family="Times New Roman,serif" font-size="14.00">true &amp; ~false</text>
<!-- n001 -->
<g id="node1" class="node">
<title>n001</title>
<ellipse fill="none" stroke="black" cx="63" cy="-185.75" rx="27" ry="18"/>
<text text-anchor="middle" x="63" y="-180.32" font-family="Times New Roman,serif" font-size="14.00">&amp;</text>
</g>
<!-- n002 -->
<g id="node2" class="node">
<title>n002</title>
<ellipse fill="none" stroke="black" cx="27" cy="-113.75" rx="27" ry="18"/>
<text text-anchor="middle" x="27" y="-108.33" font-family="Times New Roman,serif" font-size="14.00">t</text>
</g>
<!-- n001&#45;&#45;n002 -->
<g id="edge1" class="edge">
<title>n001&#45;&#45;n002</title>
<path fill="none" stroke="black" d="M54.65,-168.51C48.83,-157.21 41.11,-142.19 35.3,-130.9"/>
</g>
<!-- n003 -->
<g id="node3" class="node">
<title>n003</title>
<ellipse fill="none" stroke="black" cx="99" cy="-113.75" rx="27" ry="18"/>
<text text-anchor="middle" x="99" y="-108.33" font-family="Times New Roman,serif" font-size="14.00">~</text>
</g>
<!-- n001&#45;&#45;n003 -->
<g id="edge2" class="edge">
<title>n001&#45;&#45;n003</title>
<path fill="none" stroke="black" d="M71.35,-168.51C77.17,-157.21 84.89,-142.19 90.7,-130.9"/>
</g>
<!-- n004 -->
<g id="node4" class="node">
<title>n004</title>
<ellipse fill="none" stroke="black" cx="99" cy="-41.75" rx="27" ry="18"/>
<text text-anchor="middle" x="99" y="-36.33" font-family="Times New Roman,serif" font-size="14.00">f</text>
</g>
<!-- n003&#45;&#45;n004 -->
<g id="edge3" class="edge">
<title>n003&#45;&#45;n004</title>
<path fill="none" stroke="black" d="M99,-95.45C99,-84.6 99,-70.67 99,-59.85"/>
</g>
</g>
</svg>
