<?xml version="1.0" encoding="UTF-8" standalone="no"?>
<!DOCTYPE svg PUBLIC "-//W3C//DTD SVG 1.1//EN"
 "http://www.w3.org/Graphics/SVG/1.1/DTD/svg11.dtd">
<!-- Generated by graphviz version 12.2.1 (20241206.2353)
 -->
<!-- Pages: 1 -->
<svg width="170pt" height="285pt"
 viewBox="0.00 0.00 170.00 284.50" xmlns="http://www.w3.org/2000/svg" xmlns:xlink="http://www.w3.org/1999/xlink">
<g id="graph0" class="graph" transform="scale(1 1) rotate(0) translate(4 280.5)">
<polygon fill="white" stroke="none" points="-4,4 -4,-280.5 166,-280.5 166,4 -4,4"/>
<text text-anchor="middle" x="81" y="-7.2" font-family="Times New Roman,serif" font-size="14.00">true &amp; ~B ! A</text>
<!-- n001 -->
<g id="node1" class="node">
<title>n001</title>
<ellipse fill="none" stroke="black" cx="99" cy="-258.5" rx="27" ry="18"/>
<text text-anchor="middle" x="99" y="-253.45" font-family="Times New Roman,serif" font-size="14.00">!</text>
</g>
<!-- n002 -->
<g id="node2" class="node">
<title>n002</title>
<ellipse fill="none" stroke="black" cx="63" cy="-186.5" rx="27" ry="18"/>
<text text-anchor="middle" x="63" y="-181.45" font-family="Times New Roman,serif" font-size="14.00">&amp;</text>
</g>
<!-- n001&#45;&#45;n002 -->
<g id="edge1" class="edge">
<title>n001&#45;&#45;n002</title>
<path fill="none" stroke="black" d="M90.65,-241.26C84.83,-229.96 77.11,-214.94 71.3,-203.65"/>
</g>
<!-- n003 -->
<g id="node3" class="node">
<title>n003</title>
<ellipse fill="none" stroke="black" cx="135" cy="-186.5" rx="27" ry="18"/>
<text text-anchor="middle" x="135" y="-181.45" font-family="Times New Roman,serif" font-size="14.00">A</text>
</g>
<!-- n001&#45;&#45;n003 -->
<g id="edge2" class="edge">
<title>n001&#45;&#45;n003</title>
<path fill="none" stroke="black" d="M107.35,-241.26C113.17,-229.96 120.89,-214.94 126.7,-203.65"/>
</g>
<!-- n004 -->
<g id="node4" class="node">
<title>n004</title>
<ellipse fill="none" stroke="black" cx="27" cy="-114.5" rx="27" ry="18"/>
<text text-anchor="middle" x="27" y="-109.45" font-family="Times New Roman,serif" font-size="14.00">t</text>
</g>
<!-- n002&#45;&#45;n004 -->
<g id="edge3" class="edge">
<title>n002&#45;&#45;n004</title>
<path fill="none" stroke="black" d="M54.65,-169.26C48.83,-157.96 41.11,-142.94 35.3,-131.65"/>
</g>
<!-- n005 -->
<g id="node5" class="node">
<title>n005</title>
<ellipse fill="none" stroke="black" cx="99" cy="-114.5" rx="27" ry="18"/>
<text text-anchor="middle" x="99" y="-109.45" font-family="Times New Roman,serif" font-size="14.00">~</text>
</g>
<!-- n002&#45;&#45;n005 -->
<g id="edge4" class="edge">
<title>n002&#45;&#45;n005</title>
<path fill="none" stroke="black" d="M71.35,-169.26C77.17,-157.96 84.89,-142.94 90.7,-131.65"/>
</g>
<!-- n006 -->
<g id="node6" class="node">
<title>n006</title>
<ellipse fill="none" stroke="black" cx="99" cy="-42.5" rx="27" ry="18"/>
<text text-anchor="middle" x="99" y="-37.45" font-family="Times New Roman,serif" font-size="14.00">B</text>
</g>
<!-- n005&#45;&#45;n006 -->
<g id="edge5" class="edge">
<title>n005&#45;&#45;n006</title>
<path fill="none" stroke="black" d="M99,-96.2C99,-85.35 99,-71.42 99,-60.6"/>
</g>
</g>
</svg>
