<?xml version="1.0" encoding="UTF-8" standalone="no"?>
<!DOCTYPE svg PUBLIC "-//W3C//DTD SVG 1.1//EN"
 "http://www.w3.org/Graphics/SVG/1.1/DTD/svg11.dtd">
<!-- Generated by graphviz version 10.0.1 (20240210.2158)
 -->
<!-- Pages: 1 -->
<svg width="170pt" height="284pt"
 viewBox="0.00 0.00 170.00 283.75" xmlns="http://www.w3.org/2000/svg" xmlns:xlink="http://www.w3.org/1999/xlink">
<g id="graph0" class="graph" transform="scale(1 1) rotate(0) translate(4 279.75)">
<polygon fill="white" stroke="none" points="-4,4 -4,-279.75 166,-279.75 166,4 -4,4"/>
<text text-anchor="middle" x="81" y="-6.45" font-family="Times New Roman,serif" font-size="14.00">A ! B &amp; ~false</text>
<!-- n001 -->
<g id="node1" class="node">
<title>n001</title>
<ellipse fill="none" stroke="black" cx="63" cy="-257.75" rx="27" ry="18"/>
<text text-anchor="middle" x="63" y="-252.32" font-family="Times New Roman,serif" font-size="14.00">!</text>
</g>
<!-- n002 -->
<g id="node2" class="node">
<title>n002</title>
<ellipse fill="none" stroke="black" cx="27" cy="-185.75" rx="27" ry="18"/>
<text text-anchor="middle" x="27" y="-180.32" font-family="Times New Roman,serif" font-size="14.00">A</text>
</g>
<!-- n001&#45;&#45;n002 -->
<g id="edge1" class="edge">
<title>n001&#45;&#45;n002</title>
<path fill="none" stroke="black" d="M54.65,-240.51C48.83,-229.21 41.11,-214.19 35.3,-202.9"/>
</g>
<!-- n003 -->
<g id="node3" class="node">
<title>n003</title>
<ellipse fill="none" stroke="black" cx="99" cy="-185.75" rx="27" ry="18"/>
<text text-anchor="middle" x="99" y="-180.32" font-family="Times New Roman,serif" font-size="14.00">&amp;</text>
</g>
<!-- n001&#45;&#45;n003 -->
<g id="edge2" class="edge">
<title>n001&#45;&#45;n003</title>
<path fill="none" stroke="black" d="M71.35,-240.51C77.17,-229.21 84.89,-214.19 90.7,-202.9"/>
</g>
<!-- n004 -->
<g id="node4" class="node">
<title>n004</title>
<ellipse fill="none" stroke="black" cx="63" cy="-113.75" rx="27" ry="18"/>
<text text-anchor="middle" x="63" y="-108.33" font-family="Times New Roman,serif" font-size="14.00">B</text>
</g>
<!-- n003&#45;&#45;n004 -->
<g id="edge3" class="edge">
<title>n003&#45;&#45;n004</title>
<path fill="none" stroke="black" d="M90.65,-168.51C84.83,-157.21 77.11,-142.19 71.3,-130.9"/>
</g>
<!-- n005 -->
<g id="node5" class="node">
<title>n005</title>
<ellipse fill="none" stroke="black" cx="135" cy="-113.75" rx="27" ry="18"/>
<text text-anchor="middle" x="135" y="-108.33" font-family="Times New Roman,serif" font-size="14.00">~</text>
</g>
<!-- n003&#45;&#45;n005 -->
<g id="edge4" class="edge">
<title>n003&#45;&#45;n005</title>
<path fill="none" stroke="black" d="M107.35,-168.51C113.17,-157.21 120.89,-142.19 126.7,-130.9"/>
</g>
<!-- n006 -->
<g id="node6" class="node">
<title>n006</title>
<ellipse fill="none" stroke="black" cx="135" cy="-41.75" rx="27" ry="18"/>
<text text-anchor="middle" x="135" y="-36.33" font-family="Times New Roman,serif" font-size="14.00">f</text>
</g>
<!-- n005&#45;&#45;n006 -->
<g id="edge5" class="edge">
<title>n005&#45;&#45;n006</title>
<path fill="none" stroke="black" d="M135,-95.45C135,-84.6 135,-70.67 135,-59.85"/>
</g>
</g>
</svg>
