<?xml version="1.0" encoding="UTF-8" standalone="no"?>
<!DOCTYPE svg PUBLIC "-//W3C//DTD SVG 1.1//EN"
 "http://www.w3.org/Graphics/SVG/1.1/DTD/svg11.dtd">
<!-- Generated by graphviz version 10.0.1 (20240210.2158)
 -->
<!-- Pages: 1 -->
<svg width="219pt" height="284pt"
 viewBox="0.00 0.00 219.00 283.75" xmlns="http://www.w3.org/2000/svg" xmlns:xlink="http://www.w3.org/1999/xlink">
<g id="graph0" class="graph" transform="scale(1 1) rotate(0) translate(4 279.75)">
<polygon fill="white" stroke="none" points="-4,4 -4,-279.75 215,-279.75 215,4 -4,4"/>
<text text-anchor="middle" x="105.5" y="-6.45" font-family="Times New Roman,serif" font-size="14.00">A ! B &amp; ~false</text>
<!-- n001 -->
<g id="node1" class="node">
<title>n001</title>
<ellipse fill="none" stroke="black" cx="69" cy="-257.75" rx="54.06" ry="18"/>
<text text-anchor="middle" x="69" y="-252.32" font-family="Times New Roman,serif" font-size="14.00">A B f ~ &amp; !</text>
</g>
<!-- n002 -->
<g id="node2" class="node">
<title>n002</title>
<ellipse fill="none" stroke="black" cx="27" cy="-185.75" rx="27" ry="18"/>
<text text-anchor="middle" x="27" y="-180.32" font-family="Times New Roman,serif" font-size="14.00">A</text>
</g>
<!-- n001&#45;&#45;n002 -->
<g id="edge1" class="edge">
<title>n001&#45;&#45;n002</title>
<path fill="none" stroke="black" d="M58.83,-239.8C52.04,-228.48 43.15,-213.67 36.5,-202.58"/>
</g>
<!-- n003 -->
<g id="node3" class="node">
<title>n003</title>
<ellipse fill="none" stroke="black" cx="112" cy="-185.75" rx="39.59" ry="18"/>
<text text-anchor="middle" x="112" y="-180.32" font-family="Times New Roman,serif" font-size="14.00">B f ~ &amp;</text>
</g>
<!-- n001&#45;&#45;n003 -->
<g id="edge2" class="edge">
<title>n001&#45;&#45;n003</title>
<path fill="none" stroke="black" d="M79.41,-239.8C86.17,-228.8 94.95,-214.51 101.69,-203.54"/>
</g>
<!-- n004 -->
<g id="node4" class="node">
<title>n004</title>
<ellipse fill="none" stroke="black" cx="76" cy="-113.75" rx="27" ry="18"/>
<text text-anchor="middle" x="76" y="-108.33" font-family="Times New Roman,serif" font-size="14.00">B</text>
</g>
<!-- n003&#45;&#45;n004 -->
<g id="edge3" class="edge">
<title>n003&#45;&#45;n004</title>
<path fill="none" stroke="black" d="M103.29,-167.8C97.54,-156.64 90.06,-142.09 84.39,-131.06"/>
</g>
<!-- n005 -->
<g id="node5" class="node">
<title>n005</title>
<ellipse fill="none" stroke="black" cx="148" cy="-113.75" rx="27" ry="18"/>
<text text-anchor="middle" x="148" y="-108.33" font-family="Times New Roman,serif" font-size="14.00">f ~</text>
</g>
<!-- n003&#45;&#45;n005 -->
<g id="edge4" class="edge">
<title>n003&#45;&#45;n005</title>
<path fill="none" stroke="black" d="M120.71,-167.8C126.46,-156.64 133.94,-142.09 139.61,-131.06"/>
</g>
<!-- n006 -->
<g id="node6" class="node">
<title>n006</title>
<ellipse fill="none" stroke="black" cx="112" cy="-41.75" rx="27" ry="18"/>
<text text-anchor="middle" x="112" y="-36.33" font-family="Times New Roman,serif" font-size="14.00">~</text>
</g>
<!-- n005&#45;&#45;n006 -->
<g id="edge5" class="edge">
<title>n005&#45;&#45;n006</title>
<path fill="none" stroke="black" d="M139.65,-96.51C133.83,-85.21 126.11,-70.19 120.3,-58.9"/>
</g>
<!-- n007 -->
<g id="node7" class="node">
<title>n007</title>
<ellipse fill="none" stroke="black" cx="184" cy="-41.75" rx="27" ry="18"/>
<text text-anchor="middle" x="184" y="-36.33" font-family="Times New Roman,serif" font-size="14.00">f</text>
</g>
<!-- n005&#45;&#45;n007 -->
<g id="edge6" class="edge">
<title>n005&#45;&#45;n007</title>
<path fill="none" stroke="black" d="M156.35,-96.51C162.17,-85.21 169.89,-70.19 175.7,-58.9"/>
</g>
</g>
</svg>
