<?xml version="1.0" encoding="UTF-8" standalone="no"?>
<!DOCTYPE svg PUBLIC "-//W3C//DTD SVG 1.1//EN"
 "http://www.w3.org/Graphics/SVG/1.1/DTD/svg11.dtd">
<!-- Generated by graphviz version 12.2.1 (20241206.2353)
 -->
<!-- Pages: 1 -->
<svg width="219pt" height="285pt"
 viewBox="0.00 0.00 219.00 284.50" xmlns="http://www.w3.org/2000/svg" xmlns:xlink="http://www.w3.org/1999/xlink">
<g id="graph0" class="graph" transform="scale(1 1) rotate(0) translate(4 280.5)">
<polygon fill="white" stroke="none" points="-4,4 -4,-280.5 215,-280.5 215,4 -4,4"/>
<text text-anchor="middle" x="105.5" y="-7.2" font-family="Times New Roman,serif" font-size="14.00">true &amp; ~B ! A</text>
<!-- n001 -->
<g id="node1" class="node">
<title>n001</title>
<ellipse fill="none" stroke="black" cx="69" cy="-258.5" rx="53.91" ry="18"/>
<text text-anchor="middle" x="69" y="-253.45" font-family="Times New Roman,serif" font-size="14.00">t B ~ &amp; A !</text>
</g>
<!-- n002 -->
<g id="node2" class="node">
<title>n002</title>
<ellipse fill="none" stroke="black" cx="27" cy="-186.5" rx="27" ry="18"/>
<text text-anchor="middle" x="27" y="-181.45" font-family="Times New Roman,serif" font-size="14.00">A</text>
</g>
<!-- n001&#45;&#45;n002 -->
<g id="edge1" class="edge">
<title>n001&#45;&#45;n002</title>
<path fill="none" stroke="black" d="M58.83,-240.55C52.04,-229.23 43.15,-214.42 36.5,-203.33"/>
</g>
<!-- n003 -->
<g id="node3" class="node">
<title>n003</title>
<ellipse fill="none" stroke="black" cx="112" cy="-186.5" rx="40.09" ry="18"/>
<text text-anchor="middle" x="112" y="-181.45" font-family="Times New Roman,serif" font-size="14.00">t B ~ &amp;</text>
</g>
<!-- n001&#45;&#45;n003 -->
<g id="edge2" class="edge">
<title>n001&#45;&#45;n003</title>
<path fill="none" stroke="black" d="M79.41,-240.55C86.17,-229.55 94.95,-215.26 101.69,-204.29"/>
</g>
<!-- n004 -->
<g id="node4" class="node">
<title>n004</title>
<ellipse fill="none" stroke="black" cx="76" cy="-114.5" rx="27" ry="18"/>
<text text-anchor="middle" x="76" y="-109.45" font-family="Times New Roman,serif" font-size="14.00">t</text>
</g>
<!-- n003&#45;&#45;n004 -->
<g id="edge3" class="edge">
<title>n003&#45;&#45;n004</title>
<path fill="none" stroke="black" d="M103.29,-168.55C97.54,-157.39 90.06,-142.84 84.39,-131.81"/>
</g>
<!-- n005 -->
<g id="node5" class="node">
<title>n005</title>
<ellipse fill="none" stroke="black" cx="148" cy="-114.5" rx="27" ry="18"/>
<text text-anchor="middle" x="148" y="-109.45" font-family="Times New Roman,serif" font-size="14.00">B ~</text>
</g>
<!-- n003&#45;&#45;n005 -->
<g id="edge4" class="edge">
<title>n003&#45;&#45;n005</title>
<path fill="none" stroke="black" d="M120.71,-168.55C126.46,-157.39 133.94,-142.84 139.61,-131.81"/>
</g>
<!-- n006 -->
<g id="node6" class="node">
<title>n006</title>
<ellipse fill="none" stroke="black" cx="112" cy="-42.5" rx="27" ry="18"/>
<text text-anchor="middle" x="112" y="-37.45" font-family="Times New Roman,serif" font-size="14.00">~</text>
</g>
<!-- n005&#45;&#45;n006 -->
<g id="edge5" class="edge">
<title>n005&#45;&#45;n006</title>
<path fill="none" stroke="black" d="M139.65,-97.26C133.83,-85.96 126.11,-70.94 120.3,-59.65"/>
</g>
<!-- n007 -->
<g id="node7" class="node">
<title>n007</title>
<ellipse fill="none" stroke="black" cx="184" cy="-42.5" rx="27" ry="18"/>
<text text-anchor="middle" x="184" y="-37.45" font-family="Times New Roman,serif" font-size="14.00">B</text>
</g>
<!-- n005&#45;&#45;n007 -->
<g id="edge6" class="edge">
<title>n005&#45;&#45;n007</title>
<path fill="none" stroke="black" d="M156.35,-97.26C162.17,-85.96 169.89,-70.94 175.7,-59.65"/>
</g>
</g>
</svg>
